# This file uses centimeters as units for non-parametric coordinates.

mtllib crown.mtl
g default
v 1.204331 -1.390642 -0.695321
v 0.695321 -1.390642 -1.204331
v 0.000000 -1.390642 -1.390642
v -0.695321 -1.390642 -1.204331
v -1.204331 -1.390642 -0.695321
v -1.390642 -1.390642 0.000000
v -1.204331 -1.390642 0.695321
v -0.695321 -1.390642 1.204331
v 0.000000 -1.390642 1.390642
v 0.695321 -1.390642 1.204331
v 1.204331 -1.390642 0.695321
v 1.390642 -1.390642 0.000000
v 0.698472 0.199929 -0.403263
v 0.403263 0.199929 -0.698472
v 0.000000 0.199929 -0.806526
v -0.403263 0.199929 -0.698472
v -0.698472 0.199929 -0.403263
v -0.806526 0.199929 0.000000
v -0.698472 0.199929 0.403263
v -0.403263 0.199929 0.698472
v 0.000000 0.199929 0.806526
v 0.403263 0.199929 0.698472
v 0.698472 0.199929 0.403263
v 0.806526 0.199929 0.000000
v 0.000000 -1.390642 0.000000
v 1.204331 0.199929 -0.695321
v 0.695321 0.199929 -1.204331
v 0.000000 0.199929 -1.390642
v -0.695321 0.199929 -1.204331
v -1.204331 0.199929 -0.695321
v -1.390642 0.199929 0.000000
v -1.204331 0.199929 0.695321
v -0.695321 0.199929 1.204331
v 0.000000 0.199929 1.390642
v 0.695321 0.199929 1.204331
v 1.204331 0.199929 0.695321
v 1.390642 0.199929 0.000000
v 1.204334 1.117934 -0.695327
v 0.695324 1.117934 -1.204338
v 0.403265 1.117934 -0.698478
v 0.698474 1.117934 -0.403269
v -0.000001 1.117934 -1.390647
v -0.695322 1.117934 -1.204336
v -0.403264 1.117934 -0.698476
v -0.000001 1.117934 -0.806530
v -1.204335 1.117934 -0.695321
v -1.390646 1.117934 0.000000
v -0.806529 1.117934 0.000000
v -0.698475 1.117934 -0.403263
v -1.204334 1.117934 0.695327
v -0.695324 1.117934 1.204338
v -0.403265 1.117934 0.698478
v -0.698474 1.117934 0.403269
v 0.000001 1.117934 1.390647
v 0.695322 1.117934 1.204336
v 0.403264 1.117934 0.698476
v 0.000001 1.117934 0.806530
v 1.204335 1.117934 0.695321
v 1.390646 1.117934 0.000000
v 0.806529 1.117934 0.000000
v 0.698475 1.117934 0.403263
v 0.698472 -0.657667 -0.403263
v 0.403263 -0.657667 -0.698478
v 0.000000 -0.657664 -0.000000
v -0.000001 -0.657667 -0.806530
v -0.403263 -0.657664 -0.698472
v -0.698472 -0.657664 -0.403263
v -0.806526 -0.657664 -0.000000
v -0.698472 -0.657664 0.403263
v -0.403263 -0.657664 0.698472
v 0.000000 -0.657664 0.806526
v 0.403263 -0.657667 0.698472
v 0.698472 -0.657667 0.351499
v 0.806526 -0.657667 -0.000000
v 0.750349 1.519301 -0.750353
v -0.274647 1.519301 -1.024997
v -1.024996 1.519301 -0.274646
v -0.750349 1.519301 0.750353
v 0.274647 1.519301 1.024997
v 1.024996 1.519301 0.274646
vt 0.299188 0.429713
vt 0.505739 0.191597
vt 0.308383 0.411804
vt 0.353288 0.411901
vt 0.299109 0.429848
vt 0.660602 0.191600
vt 0.218572 0.411612
vt 0.263477 0.411708
vt 0.299191 0.429706
vt 0.815465 0.191603
vt 0.128762 0.411419
vt 0.173667 0.411516
vt 0.299193 0.429703
vt 0.041151 0.191588
vt 0.577808 0.411173
vt 0.083856 0.411323
vt 0.299196 0.429698
vt 0.196013 0.191591
vt 0.488004 0.412203
vt 0.532906 0.411688
vt 0.299189 0.429710
vt 0.350876 0.191594
vt 0.398193 0.411997
vt 0.443098 0.412094
vt 0.542045 0.707660
vt 0.522004 0.782453
vt 0.392459 0.707660
vt 0.522004 0.632867
vt 0.467252 0.578115
vt 0.392459 0.558074
vt 0.317666 0.578115
vt 0.262914 0.632867
vt 0.242873 0.707660
vt 0.262914 0.782453
vt 0.317666 0.837205
vt 0.392459 0.857246
vt 0.467252 0.837205
vt 0.196672 0.668484
vt 0.353486 0.319657
vt 0.164917 0.700239
vt 0.308580 0.319561
vt 0.263675 0.319465
vt 0.218770 0.319369
vt 0.173865 0.319272
vt 0.128959 0.319176
vt 0.084054 0.319080
vt 0.576751 0.318936
vt 0.531848 0.319451
vt 0.482850 0.319935
vt 0.443297 0.319850
vt 0.350880 0.020503
vt 0.428311 0.020504
vt 0.505743 0.020506
vt 0.583174 0.020507
vt 0.660606 0.020509
vt 0.738037 0.020510
vt 0.815468 0.020512
vt 0.892900 0.020513
vt 0.970331 0.020515
vt 0.118585 0.020498
vt 0.196017 0.020500
vt 0.273448 0.020501
vt 0.299188 0.528459
vt 0.350875 0.290341
vt 0.362020 0.528458
vt 0.406927 0.528457
vt 0.299267 0.528594
vt 0.505737 0.290344
vt 0.362098 0.528494
vt 0.407005 0.528422
vt 0.299184 0.528452
vt 0.660600 0.290347
vt 0.362016 0.528456
vt 0.406923 0.528459
vt 0.299183 0.528449
vt 0.815463 0.290350
vt 0.362014 0.528455
vt 0.406922 0.528460
vt 0.299180 0.528445
vt 0.041149 0.290335
vt 0.362011 0.528454
vt 0.406919 0.528461
vt 0.299187 0.528456
vt 0.196012 0.290338
vt 0.362018 0.528457
vt 0.406926 0.528458
vt 0.046157 0.434766
vt 0.144390 0.434766
vt 0.095274 0.475444
vt 0.126345 0.516012
vt 0.064202 0.516012
vt 0.046157 0.434774
vt 0.273443 0.290339
vt 0.144390 0.434761
vt 0.469757 0.528460
vt 0.118580 0.290336
vt 0.095279 0.475445
vt 0.469750 0.528471
vt 0.892895 0.290351
vt 0.126356 0.516009
vt 0.469752 0.528467
vt 0.738032 0.290348
vt 0.064212 0.516017
vt 0.469754 0.528464
vt 0.583169 0.290345
vt 0.046157 0.434761
vt 0.469836 0.528322
vt 0.428306 0.290342
vt 0.144390 0.434773
vt 0.469758 0.528457
vt 0.273445 0.191593
vt 0.181886 0.438322
vt 0.118582 0.191590
vt 0.259317 0.438332
vt 0.892896 0.191605
vt 0.243047 0.499020
vt 0.738034 0.191602
vt 0.198140 0.499015
vt 0.583171 0.191599
vt 0.181886 0.438326
vt 0.428308 0.191596
vt 0.259317 0.438326
vt 0.041154 0.020497
vt 0.970328 0.191606
vt 0.121540 0.625107
vt 0.398391 0.319754
vt 0.121539 0.711862
vt 0.078162 0.700239
vt 0.046408 0.668484
vt 0.034785 0.625107
vt 0.046408 0.581729
vt 0.078162 0.549975
vt 0.121540 0.538352
vt 0.164917 0.549975
vt 0.196672 0.587297
vt 0.208295 0.625107
vt 0.095268 0.475445
vt 0.126335 0.516017
vt 0.064192 0.516009
vt 0.046157 0.434766
vt 0.144390 0.434766
vt 0.095274 0.475444
vt 0.126345 0.516012
vt 0.064202 0.516012
vt 0.046157 0.434774
vt 0.144390 0.434761
vt 0.095279 0.475445
vt 0.126356 0.516009
vt 0.064212 0.516017
vt 0.046157 0.434761
vt 0.144390 0.434773
vt 0.095268 0.475445
vt 0.126335 0.516017
vt 0.064192 0.516009
vt 0.243055 0.499016
vt 0.406926 0.429711
vt 0.406928 0.429712
vt 0.198148 0.499017
vt 0.406934 0.429715
vt 0.181886 0.438332
vt 0.406932 0.429714
vt 0.259317 0.438322
vt 0.406930 0.429713
vt 0.243063 0.499015
vt 0.406848 0.429676
vt 0.198155 0.499020
vt 0.038951 0.411227
vt 0.039149 0.318984
vt 0.181886 0.438322
vt 0.362020 0.429711
vt 0.469759 0.429713
vt 0.259317 0.438332
vt 0.243047 0.499020
vt 0.362027 0.429708
vt 0.469765 0.429725
vt 0.198140 0.499015
vt 0.181886 0.438326
vt 0.362024 0.429709
vt 0.469763 0.429720
vt 0.259317 0.438326
vt 0.243055 0.499017
vt 0.362023 0.429710
vt 0.469761 0.429718
vt 0.198148 0.499016
vt 0.181886 0.438332
vt 0.361940 0.429747
vt 0.469679 0.429576
vt 0.259317 0.438322
vt 0.243063 0.499015
vt 0.362018 0.429712
vt 0.469757 0.429711
vt 0.198155 0.499020
vn 0.000000 1.000000 0.000000
vn 0.000000 1.000000 0.000000
vn 0.000000 1.000000 0.000000
vn 0.000000 1.000000 0.000000
vn 0.000000 1.000000 -0.000000
vn 0.000000 1.000000 -0.000000
vn 0.000000 1.000000 -0.000000
vn 0.000000 1.000000 -0.000000
vn 0.000000 1.000000 -0.000000
vn 0.000000 1.000000 -0.000000
vn 0.000000 1.000000 -0.000000
vn 0.000000 1.000000 -0.000000
vn 0.000000 1.000000 -0.000000
vn 0.000000 1.000000 -0.000000
vn 0.000000 1.000000 -0.000000
vn 0.000000 1.000000 -0.000000
vn 0.000000 1.000000 0.000000
vn 0.000000 1.000000 0.000000
vn 0.000000 1.000000 0.000000
vn 0.000000 1.000000 0.000000
vn 0.000000 1.000000 0.000000
vn 0.000000 1.000000 0.000000
vn 0.000000 1.000000 0.000000
vn 0.000000 1.000000 0.000000
vn 0.000000 -1.000000 0.000000
vn 0.000000 -1.000000 0.000000
vn 0.000000 -1.000000 0.000000
vn 0.000000 -1.000000 0.000000
vn 0.000000 -1.000000 0.000000
vn 0.000000 -1.000000 0.000000
vn 0.000000 -1.000000 0.000000
vn 0.000000 -1.000000 0.000000
vn 0.000000 -1.000000 0.000000
vn 0.000000 -1.000000 0.000000
vn 0.000000 -1.000000 0.000000
vn 0.000000 -1.000000 0.000000
vn 0.000000 -1.000000 0.000000
vn 0.000002 1.000000 -0.000002
vn 0.000002 1.000000 -0.000002
vn 0.000002 1.000000 -0.000002
vn 0.000001 1.000000 -0.000004
vn 0.000001 1.000000 -0.000004
vn 0.000001 1.000000 -0.000004
vn 0.000006 1.000000 -0.000003
vn 0.000006 1.000000 -0.000003
vn 0.000006 1.000000 -0.000003
vn 0.000000 1.000000 0.000000
vn 0.000000 1.000000 0.000000
vn 0.000000 1.000000 0.000000
vn 0.000000 1.000000 0.000000
vn 0.000000 1.000000 0.000000
vn 0.000000 1.000000 0.000000
vn 0.000000 1.000000 0.000000
vn 0.000000 1.000000 0.000000
vn 0.000000 1.000000 0.000000
vn 0.000000 1.000000 0.000000
vn 0.000000 1.000000 0.000000
vn 0.000000 1.000000 0.000000
vn 0.000000 1.000000 0.000000
vn 0.000000 1.000000 0.000000
vn 0.000000 1.000000 0.000000
vn 0.000007 1.000000 0.000000
vn 0.000007 1.000000 0.000000
vn 0.000007 1.000000 0.000000
vn 0.000003 1.000000 0.000002
vn 0.000003 1.000000 0.000002
vn 0.000003 1.000000 0.000002
vn 0.000003 1.000000 0.000001
vn 0.000003 1.000000 0.000001
vn 0.000003 1.000000 0.000001
vn 0.000003 1.000000 -0.000001
vn 0.000003 1.000000 -0.000001
vn 0.000003 1.000000 -0.000001
vn 0.707107 -0.000000 -0.707107
vn 0.707107 -0.000000 -0.707107
vn 0.707107 -0.000003 -0.707107
vn 0.707107 -0.000003 -0.707107
vn 0.258819 -0.000000 -0.965926
vn 0.258819 -0.000000 -0.965926
vn 0.258819 -0.000000 -0.965926
vn 0.258819 -0.000000 -0.965926
vn -0.258819 -0.000000 -0.965926
vn -0.258819 -0.000000 -0.965926
vn -0.258819 -0.000002 -0.965926
vn -0.258819 -0.000002 -0.965926
vn -0.707107 -0.000000 -0.707107
vn -0.707107 -0.000000 -0.707107
vn -0.707107 -0.000000 -0.707107
vn -0.707107 -0.000000 -0.707107
vn -0.965926 -0.000000 -0.258819
vn -0.965926 -0.000000 -0.258819
vn -0.965926 -0.000001 -0.258819
vn -0.965926 -0.000001 -0.258819
vn -0.965926 -0.000000 0.258819
vn -0.965926 -0.000000 0.258819
vn -0.965926 -0.000000 0.258819
vn -0.965926 -0.000000 0.258819
vn -0.707107 -0.000000 0.707107
vn -0.707107 -0.000000 0.707107
vn -0.707107 -0.000003 0.707107
vn -0.707107 -0.000003 0.707107
vn -0.258819 -0.000000 0.965926
vn -0.258819 -0.000000 0.965926
vn -0.258819 -0.000000 0.965926
vn -0.258819 -0.000000 0.965926
vn 0.258819 -0.000000 0.965926
vn 0.258819 -0.000000 0.965926
vn 0.258819 -0.000002 0.965926
vn 0.258819 -0.000002 0.965926
vn 0.707107 -0.000000 0.707107
vn 0.707107 -0.000000 0.707107
vn 0.707107 -0.000000 0.707107
vn 0.707107 -0.000000 0.707107
vn 0.965926 -0.000000 0.258819
vn 0.965926 -0.000000 0.258819
vn 0.965926 -0.000001 0.258819
vn 0.965926 -0.000001 0.258819
vn 0.965926 -0.000000 -0.258819
vn 0.965926 -0.000000 -0.258819
vn 0.965926 -0.000000 -0.258819
vn 0.965926 -0.000000 -0.258819
vn 0.704791 0.080874 -0.704790
vn 0.704790 0.080874 -0.704791
vn -0.866025 -0.000001 -0.500000
vn -0.866025 -0.000001 -0.500000
vn -0.862200 0.093889 -0.497791
vn -0.863394 0.077888 -0.498481
vn -0.578383 -0.000000 0.815766
vn -0.815768 0.000002 0.578380
vn -0.703714 0.097847 0.703714
vn -0.703714 0.097847 0.703714
vn 0.500000 0.000005 0.866025
vn 0.500000 0.000005 0.866025
vn 0.498481 0.077893 0.863394
vn 0.497791 0.093894 0.862199
vn -0.257971 0.080876 -0.962762
vn -0.257971 0.080876 -0.962762
vn -0.866025 0.000002 0.500000
vn -0.866025 0.000002 0.500000
vn -0.862200 0.093892 0.497791
vn -0.863394 0.077890 0.498481
vn 0.417285 0.000001 0.908776
vn 0.093012 -0.000001 0.995665
vn 0.257577 0.097846 0.961291
vn 0.257577 0.097846 0.961291
vn 1.000000 0.000001 0.000000
vn 1.000000 0.000001 0.000000
vn 0.996962 0.077889 0.000000
vn 0.995582 0.093891 0.000000
vn -0.962762 0.080877 -0.257971
vn -0.962762 0.080877 -0.257971
vn 0.000000 -0.000000 1.000000
vn 0.000000 -0.000000 1.000000
vn 0.000000 0.093891 0.995583
vn 0.000000 0.077889 0.996962
vn 0.995665 0.000001 0.093010
vn 0.908776 0.000001 0.417284
vn 0.961291 0.097844 0.257577
vn 0.961291 0.097844 0.257577
vn 0.500000 0.000002 -0.866025
vn 0.500000 0.000002 -0.866025
vn 0.498481 0.077890 -0.863394
vn 0.497791 0.093892 -0.862200
vn -0.704791 0.080874 0.704790
vn -0.704790 0.080874 0.704791
vn 0.866025 -0.000001 0.500000
vn 0.866025 -0.000001 0.500000
vn 0.862200 0.093889 0.497791
vn 0.863394 0.077888 0.498481
vn 0.578381 0.000003 -0.815766
vn 0.815767 0.000003 -0.578381
vn 0.703714 0.097847 -0.703714
vn 0.703714 0.097847 -0.703714
vn -0.500000 0.000005 -0.866025
vn -0.500000 0.000005 -0.866025
vn -0.498481 0.077893 -0.863394
vn -0.497791 0.093894 -0.862199
vn 0.257971 0.080876 0.962762
vn 0.257971 0.080876 0.962762
vn 0.866025 0.000002 -0.500000
vn 0.866025 0.000002 -0.500000
vn 0.862200 0.093892 -0.497791
vn 0.863394 0.077890 -0.498481
vn -0.434237 0.007103 -0.900771
vn -0.093010 0.000002 -0.995665
vn -0.257577 0.097846 -0.961291
vn -0.257577 0.097846 -0.961291
vn -1.000000 0.000001 0.000000
vn -1.000000 0.000001 0.000000
vn -0.996962 0.077889 0.000000
vn -0.995582 0.093891 0.000000
vn 0.962762 0.080877 0.257971
vn 0.962762 0.080877 0.257971
vn -0.000000 0.000000 -1.000000
vn -0.000000 0.000000 -1.000000
vn -0.000000 0.093891 -0.995583
vn -0.000000 0.077889 -0.996962
vn -0.995476 0.002679 -0.094977
vn -0.906757 0.009909 -0.421538
vn -0.961291 0.097844 -0.257577
vn -0.961291 0.097844 -0.257577
vn -0.500000 0.000002 0.866025
vn -0.500000 0.000002 0.866025
vn -0.498481 0.077890 0.863394
vn -0.497791 0.093892 0.862200
vn -0.500001 -0.000005 0.866025
vn -0.866026 -0.000001 0.499998
vn 0.000003 -0.000005 1.000000
vn 0.500002 -0.000001 0.866024
vn 0.866025 0.000000 0.500000
vn 1.000000 0.000000 0.000000
vn 0.866025 0.000000 -0.500000
vn 0.500000 0.000000 -0.866025
vn -0.000001 0.000000 -1.000000
vn -0.523462 0.010867 -0.851980
vn -0.869782 0.014885 -0.493212
vn -0.999991 0.004177 0.000000
vn 0.578505 0.575034 -0.578505
vn -0.714715 0.564721 -0.412641
vn -0.578505 0.575034 0.578505
vn 0.412641 0.564721 0.714715
vn -0.211747 0.575035 -0.790252
vn -0.714716 0.564720 0.412641
vn 0.211748 0.575033 0.790253
vn 0.825282 0.564721 0.000000
vn -0.790252 0.575034 -0.211747
vn 0.000000 0.564721 0.825282
vn 0.790253 0.575034 0.211747
vn 0.412641 0.564721 -0.714715
vn -0.578505 0.575034 0.578505
vn 0.714715 0.564721 0.412641
vn 0.578505 0.575034 -0.578505
vn -0.412641 0.564721 -0.714715
vn 0.211747 0.575035 0.790252
vn 0.714716 0.564720 -0.412641
vn -0.211748 0.575033 -0.790253
vn -0.825282 0.564721 0.000000
vn 0.790252 0.575034 0.211747
vn 0.000000 0.564721 -0.825282
vn -0.790253 0.575034 -0.211747
vn -0.412641 0.564721 0.714715
s off
g textureEditorIsolateSelectSet crown
usemtl initialShadingGroup
f 27/112/1 28/114/2 15/116/3 14/118/4
f 29/120/5 30/122/6 17/155/7 16/158/8
f 31/160/9 32/162/10 19/164/11 18/166/12
f 33/169/13 34/172/14 21/173/15 20/176/16
f 35/177/17 36/180/18 23/181/19 22/184/20
f 37/185/21 26/188/22 13/189/23 24/192/24
s 1
g crown
f 2/25/25 1/26/26 25/27/27
f 3/28/28 2/25/25 25/27/27
f 4/29/29 3/28/28 25/27/27
f 5/30/30 4/29/29 25/27/27
f 6/31/31 5/30/30 25/27/27
f 7/32/32 6/31/31 25/27/27
f 8/33/33 7/32/32 25/27/27
f 9/34/34 8/33/33 25/27/27
f 10/35/35 9/34/34 25/27/27
f 11/36/36 10/35/35 25/27/27
f 12/37/37 11/36/36 25/27/27
f 1/26/26 12/37/37 25/27/27
s off
f 62/38/38 63/40/39 64/125/40
f 63/40/41 65/127/42 64/125/43
f 65/127/44 66/128/45 64/125/46
f 66/128/47 67/129/48 64/125/49
f 67/129/50 68/130/51 64/125/52
f 68/130/53 69/131/54 64/125/55
f 69/131/56 70/132/57 64/125/58
f 70/132/59 71/133/60 64/125/61
f 71/133/62 72/134/63 64/125/64
f 72/134/65 73/135/66 64/125/67
f 73/135/68 74/136/69 64/125/70
f 74/136/71 62/38/72 64/125/73
s 2
f 1/51/74 2/52/75 27/121/76 26/22/77
s off
f 2/52/78 3/53/79 28/2/80 27/121/81
s 3
f 3/53/82 4/54/83 29/119/84 28/2/85
s off
f 4/54/86 5/55/87 30/6/88 29/119/89
s 4
f 5/55/90 6/56/91 31/117/92 30/6/93
s off
f 6/56/94 7/57/95 32/10/96 31/117/97
s 5
f 7/57/98 8/58/99 33/115/100 32/10/101
s off
f 8/58/102 9/59/103 34/124/104 33/115/105
s 6
f 9/123/106 10/60/107 35/113/108 34/14/109
s off
f 10/60/110 11/61/111 36/18/112 35/113/113
s 7
f 11/61/114 12/62/115 37/111/116 36/18/117
s off
f 12/62/118 1/51/119 26/22/120 37/111/121
s 2
f 26/22/77 27/121/76 39/108/122 38/64/123
s 8
g textureEditorIsolateSelectSet crown
f 27/1/124 14/190/125 40/65/126 39/63/127
s 9
f 14/190/128 13/156/129 41/66/130 40/65/131
s 10
f 13/156/132 26/191/133 38/110/134 41/66/135
s 3
g crown
f 28/2/85 29/119/84 43/105/136 42/68/137
s 11
g textureEditorIsolateSelectSet crown
f 29/5/138 16/186/139 44/69/140 43/67/141
s 9
f 16/186/142 15/165/143 45/70/144 44/69/145
s 13
f 15/165/146 28/187/147 42/107/148 45/70/149
s 4
g crown
f 30/6/93 31/117/92 47/102/150 46/72/151
s 14
g textureEditorIsolateSelectSet crown
f 31/9/152 18/182/153 48/73/154 47/71/155
s 9
f 18/182/156 17/163/157 49/74/158 48/73/159
s 16
f 17/163/160 30/183/161 46/104/162 49/74/163
s 5
g crown
f 32/10/101 33/115/100 51/99/164 50/76/165
s 17
g textureEditorIsolateSelectSet crown
f 33/13/166 20/178/167 52/77/168 51/75/169
s 9
f 20/178/170 19/161/171 53/78/172 52/77/173
s 19
f 19/161/174 32/179/175 50/101/176 53/78/177
s 6
g crown
f 34/14/109 35/113/108 55/96/178 54/80/179
s 20
g textureEditorIsolateSelectSet crown
f 35/17/180 22/174/181 56/81/182 55/79/183
s 9
f 22/174/184 21/159/185 57/82/186 56/81/187
s 22
f 21/159/188 34/175/189 54/98/190 57/82/191
s 7
g crown
f 36/18/117 37/111/116 59/93/192 58/84/193
s 23
g textureEditorIsolateSelectSet crown
f 37/21/194 24/170/195 60/85/196 59/83/197
s 9
f 24/170/198 23/157/199 61/86/200 60/85/201
s 25
f 23/157/202 36/171/203 58/95/204 61/86/205
s 9
f 13/23/129 14/4/128 63/39/206 62/126/207
f 14/4/128 15/3/143 65/41/208 63/39/206
f 15/3/143 16/8/142 66/42/209 65/41/208
f 16/8/142 17/7/157 67/43/210 66/42/209
f 17/7/157 18/12/156 68/44/211 67/43/210
f 18/12/156 19/11/171 69/45/212 68/44/211
f 19/11/171 20/16/170 70/46/213 69/45/212
f 20/16/170 21/167/185 71/168/214 70/46/213
f 21/15/185 22/20/184 72/48/215 71/47/214
f 22/20/184 23/19/199 73/49/216 72/48/215
f 23/19/199 24/24/198 74/50/217 73/49/216
f 24/24/198 13/23/129 62/126/207 74/50/217
s 2
g crown
f 38/87/123 39/88/122 75/89/218
s 8
g textureEditorIsolateSelectSet crown
f 39/88/127 40/90/126 75/89/219
s 9
f 40/90/131 41/91/130 75/89/220
s 10
f 41/91/135 38/87/134 75/89/221
s 3
g crown
f 42/92/137 43/94/136 76/97/222
s 11
g textureEditorIsolateSelectSet crown
f 43/94/141 44/100/140 76/97/223
s 9
f 44/100/145 45/103/144 76/97/224
s 13
f 45/103/149 42/92/148 76/97/225
s 4
g crown
f 46/106/151 47/109/150 77/137/226
s 14
g textureEditorIsolateSelectSet crown
f 47/109/155 48/138/154 77/137/227
s 9
f 48/138/159 49/139/158 77/137/228
s 16
f 49/139/163 46/106/162 77/137/229
s 5
g crown
f 50/140/165 51/141/164 78/142/230
s 17
g textureEditorIsolateSelectSet crown
f 51/141/169 52/143/168 78/142/231
s 9
f 52/143/173 53/144/172 78/142/232
s 19
f 53/144/177 50/140/176 78/142/233
s 6
g crown
f 54/145/179 55/146/178 79/147/234
s 20
g textureEditorIsolateSelectSet crown
f 55/146/183 56/148/182 79/147/235
s 9
f 56/148/187 57/149/186 79/147/236
s 22
f 57/149/191 54/145/190 79/147/237
s 7
g crown
f 58/150/193 59/151/192 80/152/238
s 23
g textureEditorIsolateSelectSet crown
f 59/151/197 60/153/196 80/152/239
s 9
f 60/153/201 61/154/200 80/152/240
s 25
f 61/154/205 58/150/204 80/152/241
