# This file uses centimeters as units for non-parametric coordinates.

mtllib Marshmallow_v001.mtl
g default
v -0.000002 0.000001 -0.000000
v -0.000002 54.452211 -0.000000
v 24.529860 2.654080 -11.812935
v 22.077117 0.000001 -10.631772
v 16.975157 2.654080 -21.286192
v 15.277836 0.000001 -19.157778
v 6.058373 2.654080 -26.543474
v 5.452587 0.000001 -23.889387
v -6.058377 2.654080 -26.543474
v -5.452591 0.000001 -23.889387
v -16.975191 2.654080 -21.286205
v -15.277866 0.000001 -19.157819
v -24.529893 2.654080 -11.812935
v -22.077148 0.000001 -10.631795
v -27.226119 2.654080 -0.000000
v -24.503785 0.000001 -0.000000
v -24.529893 2.654080 11.812960
v -22.077148 0.000001 10.631820
v -16.975213 2.654080 21.286230
v -15.277866 0.000001 19.157844
v -6.058403 2.654080 26.543486
v -5.452617 0.000001 23.889413
v 6.058373 2.654080 26.543486
v 5.452587 0.000001 23.889413
v 16.975157 2.654080 21.286230
v 15.277836 0.000001 19.157844
v 24.529860 2.654080 11.812960
v 22.077117 0.000001 10.631820
v 27.226106 2.654080 -0.000000
v 24.503765 0.000001 -0.000000
v 24.529860 51.798128 -11.812935
v 22.077117 54.452211 -10.631772
v 16.975157 51.798128 -21.286192
v 15.277836 54.452211 -19.157778
v 6.058373 51.798128 -26.543474
v 5.452587 54.452211 -23.889387
v -6.058377 51.798128 -26.543474
v -5.452591 54.452211 -23.889387
v -16.975191 51.798128 -21.286205
v -15.277866 54.452211 -19.157819
v -24.529893 51.798128 -11.812935
v -22.077148 54.452211 -10.631795
v -27.226119 51.798128 -0.000000
v -24.503785 54.452211 -0.000000
v -24.529893 51.798128 11.812960
v -22.077148 54.452211 10.631820
v -16.975213 51.798128 21.286230
v -15.277866 54.452211 19.157844
v -6.058403 51.798128 26.543486
v -5.452617 54.452211 23.889413
v 6.058373 51.798128 26.543486
v 5.452587 54.452211 23.889413
v 16.975157 51.798128 21.286230
v 15.277836 54.452211 19.157844
v 24.529860 51.798128 11.812960
v 22.077117 54.452211 10.631820
v 27.226106 51.798128 -0.000000
v 24.503765 54.452211 -0.000000
v 25.149062 36.892664 12.111150
v 17.403655 36.892664 21.823553
v 6.211306 36.892664 27.213515
v -6.211336 36.892664 27.213515
v -17.403718 36.892664 21.823553
v -25.149094 36.892664 12.111150
v -27.913380 36.892664 -0.000000
v -25.149094 36.892664 -12.111127
v -17.403688 36.892664 -21.823528
v -6.211313 36.892664 -27.213506
v 6.211306 36.892664 -27.213506
v 17.403655 36.892664 -21.823515
v 25.149062 36.892664 -12.111127
v 27.913357 36.892664 -0.000000
v 25.149062 17.378045 12.111150
v 17.403655 17.378045 21.823553
v 6.211306 17.378045 27.213515
v -6.211336 17.378045 27.213515
v -17.403718 17.378045 21.823553
v -25.149092 17.378045 12.111150
v -27.913380 17.378045 -0.000000
v -25.149092 17.378045 -12.111127
v -17.403688 17.378045 -21.823528
v -6.211313 17.378045 -27.213506
v 6.211306 17.378045 -27.213506
v 17.403655 17.378045 -21.823515
v 25.149062 17.378045 -12.111127
v 27.913357 17.378045 -0.000000
vt 0.092709 0.614810
vt 0.451324 0.416623
vt 0.391080 0.494109
vt 0.160178 0.615023
vt 0.159627 0.696286
vt 0.472824 0.320000
vt 0.304026 0.537110
vt 0.091415 0.696124
vt 0.207403 0.537110
vt 0.227910 0.614923
vt 0.120348 0.494109
vt 0.227751 0.696213
vt 0.060105 0.416623
vt 0.295793 0.614721
vt 0.038604 0.320000
vt 0.295837 0.696041
vt 0.060105 0.223377
vt 0.363760 0.614491
vt 0.120348 0.145891
vt 0.363910 0.695833
vt 0.207402 0.102890
vt 0.431776 0.614261
vt 0.304026 0.102890
vt 0.431983 0.695615
vt 0.391080 0.145891
vt 0.499822 0.614041
vt 0.451324 0.223377
vt 0.500060 0.695399
vt 0.567886 0.613838
vt 0.934676 0.412799
vt 0.954792 0.323905
vt 0.568146 0.695193
vt 0.635960 0.613660
vt 0.877983 0.484161
vt 0.636245 0.695005
vt 0.795941 0.523859
vt 0.704032 0.613512
vt 0.704800 0.524028
vt 0.704366 0.694845
vt 0.622611 0.484636
vt 0.772080 0.613393
vt 0.565654 0.413484
vt 0.772523 0.694720
vt 0.545208 0.324666
vt 0.840050 0.613266
vt 0.565323 0.235772
vt 0.840742 0.694624
vt 0.622017 0.164410
vt 0.907826 0.612985
vt 0.704058 0.124713
vt 0.909074 0.694498
vt 0.795199 0.124543
vt 0.025698 0.613711
vt 0.877388 0.163935
vt 0.977621 0.694117
vt 0.934346 0.235087
vt 0.840792 0.802213
vt 0.909006 0.802382
vt 0.907689 0.884699
vt 0.840224 0.884477
vt 0.772667 0.802280
vt 0.772496 0.884569
vt 0.704581 0.802444
vt 0.704618 0.884765
vt 0.636508 0.802647
vt 0.636654 0.884990
vt 0.568436 0.802863
vt 0.568642 0.885217
vt 0.500360 0.803078
vt 0.500600 0.885436
vt 0.255714 0.320000
vt 0.750000 0.324286
vt 0.432276 0.803285
vt 0.432540 0.885640
vt 0.364178 0.803475
vt 0.364470 0.885821
vt 0.296058 0.803641
vt 0.296402 0.885974
vt 0.227902 0.803772
vt 0.228359 0.886099
vt 0.159684 0.803875
vt 0.160393 0.886234
vt 0.091351 0.804007
vt 0.092621 0.886525
vt 0.977382 0.803086
vt 0.974699 0.885804
vt 0.473056 0.427358
vt 0.406119 0.513452
vt 0.986731 0.324021
vt 0.309393 0.561231
vt 0.496945 0.320000
vt 0.202035 0.561231
vt 0.963173 0.221334
vt 0.897392 0.139037
vt 0.802420 0.093431
vt 0.697064 0.093549
vt 0.602194 0.139367
vt 0.536598 0.221810
vt 0.513269 0.324550
vt 0.536827 0.427237
vt 0.602607 0.509534
vt 0.697580 0.555140
vt 0.802935 0.555022
vt 0.897806 0.509204
vt 0.963402 0.426761
vt 0.473056 0.212642
vt 0.406119 0.126548
vt 0.309393 0.078769
vt 0.202035 0.078769
vt 0.105309 0.126548
vt 0.038373 0.212642
vt 0.014483 0.320000
vt 0.038373 0.427358
vt 0.105309 0.513452
vt 0.023042 0.695423
vt 0.022805 0.804392
vt 0.025272 0.887426
vt 0.975179 0.612090
vn 0.628943 -0.716025 -0.302884
vn 0.628942 -0.716025 -0.302885
vn 0.435243 -0.716025 -0.545776
vn 0.435242 -0.716025 -0.545777
vn 0.698073 -0.716026 0.000000
vn 0.698073 -0.716026 -0.000000
vn 0.155336 -0.716027 -0.680571
vn 0.155337 -0.716027 -0.680571
vn -0.155336 -0.716026 -0.680572
vn -0.155336 -0.716026 -0.680572
vn -0.435243 -0.716024 -0.545778
vn -0.435243 -0.716024 -0.545778
vn -0.628944 -0.716024 -0.302885
vn -0.628944 -0.716024 -0.302883
vn -0.698074 -0.716026 -0.000000
vn -0.698074 -0.716026 0.000000
vn -0.628943 -0.716025 0.302884
vn -0.628944 -0.716025 0.302882
vn -0.435242 -0.716024 0.545778
vn -0.435243 -0.716024 0.545777
vn -0.155335 -0.716025 0.680573
vn -0.155336 -0.716025 0.680573
vn 0.155336 -0.716025 0.680573
vn 0.155336 -0.716025 0.680573
vn 0.435244 -0.716023 0.545778
vn 0.435243 -0.716023 0.545779
vn 0.628944 -0.716024 0.302885
vn 0.628944 -0.716024 0.302883
vn 0.628943 0.716025 -0.302884
vn 0.628943 0.716025 -0.302885
vn 0.698074 0.716026 0.000000
vn 0.698074 0.716026 0.000000
vn 0.435242 0.716025 -0.545777
vn 0.435243 0.716025 -0.545776
vn 0.155337 0.716026 -0.680571
vn 0.155337 0.716026 -0.680571
vn -0.155336 0.716025 -0.680572
vn -0.155336 0.716025 -0.680572
vn -0.435243 0.716023 -0.545779
vn -0.435243 0.716023 -0.545779
vn -0.628945 0.716024 -0.302883
vn -0.628944 0.716024 -0.302885
vn -0.698074 0.716025 0.000000
vn -0.698074 0.716025 -0.000000
vn -0.628945 0.716025 0.302882
vn -0.628944 0.716025 0.302884
vn -0.435243 0.716024 0.545777
vn -0.435243 0.716024 0.545778
vn -0.155336 0.716024 0.680573
vn -0.155336 0.716024 0.680573
vn 0.155336 0.716024 0.680573
vn 0.155336 0.716024 0.680574
vn 0.435244 0.716023 0.545779
vn 0.435244 0.716023 0.545779
vn 0.628945 0.716024 0.302883
vn 0.628944 0.716024 0.302885
vn 0.899988 -0.046625 -0.433414
vn 0.622812 -0.046626 -0.780981
vn 0.623367 -0.019852 -0.781677
vn 0.900791 -0.019851 -0.433800
vn 0.222280 -0.046626 -0.973867
vn 0.222478 -0.019852 -0.974735
vn -0.222279 -0.046626 -0.973868
vn -0.222477 -0.019852 -0.974736
vn -0.622812 -0.046626 -0.780981
vn -0.623367 -0.019852 -0.781677
vn -0.899989 -0.046626 -0.433413
vn -0.900791 -0.019852 -0.433799
vn -0.998912 -0.046626 0.000000
vn -0.999803 -0.019852 0.000000
vn -0.899989 -0.046626 0.433412
vn -0.900791 -0.019852 0.433798
vn -0.622812 -0.046626 0.780981
vn -0.623367 -0.019852 0.781677
vn -0.222278 -0.046626 0.973868
vn -0.222477 -0.019852 0.974736
vn 0.222279 -0.046626 0.973868
vn 0.222477 -0.019852 0.974736
vn 0.622812 -0.046626 0.780981
vn 0.623367 -0.019852 0.781677
vn 0.899988 -0.046625 0.433413
vn 0.900791 -0.019851 0.433799
vn 0.998912 -0.046625 -0.000000
vn 0.999803 -0.019851 -0.000000
vn 0.000000 -1.000000 0.000000
vn 0.000000 -1.000000 -0.000000
vn 0.000000 -1.000000 0.000000
vn 0.000000 -1.000000 0.000000
vn 0.000000 -1.000000 0.000000
vn 0.000000 -1.000000 0.000000
vn 0.000000 -1.000000 -0.000000
vn 0.000000 -1.000000 0.000000
vn 0.000000 -1.000000 0.000000
vn 0.000000 -1.000000 -0.000000
vn 0.000000 -1.000000 -0.000000
vn 0.000000 -1.000000 0.000000
vn 0.000000 -1.000000 0.000000
vn 0.000000 -1.000000 0.000000
vn 0.000000 -1.000000 0.000000
vn 0.000000 1.000000 0.000000
vn 0.000000 1.000000 0.000000
vn 0.000000 1.000000 0.000000
vn 0.000000 1.000000 0.000000
vn 0.000000 1.000000 0.000000
vn 0.000000 1.000000 0.000000
vn 0.000000 1.000000 0.000000
vn 0.000000 1.000000 0.000000
vn 0.000000 1.000000 0.000000
vn 0.000000 1.000000 0.000000
vn 0.000000 1.000000 0.000000
vn 0.000000 1.000000 0.000000
vn 0.000000 1.000000 0.000000
vn 0.000000 1.000000 0.000000
vn 0.000000 1.000000 0.000000
vn 0.623369 0.019749 0.781679
vn 0.900793 0.019749 0.433800
vn 0.900012 0.046059 0.433425
vn 0.622828 0.046059 0.781002
vn 0.222477 0.019749 0.974738
vn 0.222285 0.046059 0.973893
vn -0.222477 0.019749 0.974738
vn -0.222284 0.046059 0.973893
vn -0.623369 0.019749 0.781679
vn -0.622828 0.046059 0.781002
vn -0.900793 0.019749 0.433799
vn -0.900013 0.046059 0.433423
vn -0.999805 0.019749 -0.000000
vn -0.998939 0.046059 -0.000000
vn -0.900793 0.019749 -0.433800
vn -0.900012 0.046059 -0.433424
vn -0.623368 0.019749 -0.781679
vn -0.622828 0.046059 -0.781002
vn -0.222478 0.019749 -0.974738
vn -0.222285 0.046059 -0.973893
vn 0.222479 0.019749 -0.974738
vn 0.222286 0.046059 -0.973893
vn 0.623369 0.019749 -0.781679
vn 0.622829 0.046059 -0.781001
vn 0.900792 0.019749 -0.433801
vn 0.900012 0.046059 -0.433425
vn 0.999805 0.019749 0.000000
vn 0.998939 0.046059 0.000000
s 1
g marshmallow
usemtl initialShadingGroup
f 3/87/1 4/2/2 6/3/3 5/88/4
f 4/2/2 3/87/1 29/91/5 30/6/6
f 5/88/4 6/3/3 8/7/7 7/90/8
f 7/90/8 8/7/7 10/9/9 9/92/10
f 9/92/10 10/9/9 12/11/11 11/114/12
f 11/114/12 12/11/11 14/13/13 13/113/14
f 13/113/14 14/13/13 16/15/15 15/112/16
f 15/112/16 16/15/15 18/17/17 17/111/18
f 17/111/18 18/17/17 20/19/19 19/110/20
f 19/110/20 20/19/19 22/21/21 21/109/22
f 21/109/22 22/21/21 24/23/23 23/108/24
f 23/108/24 24/23/23 26/25/25 25/107/26
f 25/107/26 26/25/25 28/27/27 27/106/28
f 27/106/28 28/27/27 30/6/6 29/91/5
s 2
f 31/105/29 32/30/30 58/31/31 57/89/32
f 32/30/30 31/105/29 33/104/33 34/34/34
f 34/34/34 33/104/33 35/103/35 36/36/36
f 36/36/36 35/103/35 37/102/37 38/38/38
f 38/38/38 37/102/37 39/101/39 40/40/40
f 40/40/40 39/101/39 41/100/41 42/42/42
f 42/42/42 41/100/41 43/99/43 44/44/44
f 44/44/44 43/99/43 45/98/45 46/46/46
f 46/46/46 45/98/45 47/97/47 48/48/48
f 48/48/48 47/97/47 49/96/49 50/50/50
f 50/50/50 49/96/49 51/95/51 52/52/52
f 52/52/52 51/95/51 53/94/53 54/54/54
f 54/54/54 53/94/53 55/93/55 56/56/56
f 56/56/56 55/93/55 57/89/32 58/31/31
s 3
f 3/1/57 5/4/58 84/5/59 85/8/60
f 5/4/58 7/10/61 83/12/62 84/5/59
f 7/10/61 9/14/63 82/16/64 83/12/62
f 9/14/63 11/18/65 81/20/66 82/16/64
f 11/18/65 13/22/67 80/24/68 81/20/66
f 13/22/67 15/26/69 79/28/70 80/24/68
f 15/26/69 17/29/71 78/32/72 79/28/70
f 17/29/71 19/33/73 77/35/74 78/32/72
f 19/33/73 21/37/75 76/39/76 77/35/74
f 21/37/75 23/41/77 75/43/78 76/39/76
f 23/41/77 25/45/79 74/47/80 75/43/78
f 25/45/79 27/49/81 73/51/82 74/47/80
f 27/49/81 29/118/83 86/55/84 73/51/82
f 29/53/83 3/1/57 85/8/60 86/115/84
s 4
f 6/3/85 4/2/86 1/71/87
f 8/7/88 6/3/85 1/71/87
f 10/9/89 8/7/88 1/71/87
f 12/11/90 10/9/89 1/71/87
f 14/13/91 12/11/90 1/71/87
f 16/15/92 14/13/91 1/71/87
f 18/17/93 16/15/92 1/71/87
f 20/19/94 18/17/93 1/71/87
f 22/21/95 20/19/94 1/71/87
f 24/23/96 22/21/95 1/71/87
f 26/25/97 24/23/96 1/71/87
f 28/27/98 26/25/97 1/71/87
f 30/6/99 28/27/98 1/71/87
f 4/2/86 30/6/99 1/71/87
s 5
f 32/30/100 34/34/101 2/72/102
f 34/34/101 36/36/103 2/72/102
f 36/36/103 38/38/104 2/72/102
f 38/38/104 40/40/105 2/72/102
f 40/40/105 42/42/106 2/72/102
f 42/42/106 44/44/107 2/72/102
f 44/44/107 46/46/108 2/72/102
f 46/46/108 48/48/109 2/72/102
f 48/48/109 50/50/110 2/72/102
f 50/50/110 52/52/111 2/72/102
f 52/52/111 54/54/112 2/72/102
f 54/54/112 56/56/113 2/72/102
f 56/56/113 58/31/114 2/72/102
f 58/31/114 32/30/100 2/72/102
s 3
f 60/57/115 59/58/116 55/59/117 53/60/118
f 61/61/119 60/57/115 53/60/118 51/62/120
f 62/63/121 61/61/119 51/62/120 49/64/122
f 63/65/123 62/63/121 49/64/122 47/66/124
f 64/67/125 63/65/123 47/66/124 45/68/126
f 65/69/127 64/67/125 45/68/126 43/70/128
f 66/73/129 65/69/127 43/70/128 41/74/130
f 67/75/131 66/73/129 41/74/130 39/76/132
f 68/77/133 67/75/131 39/76/132 37/78/134
f 69/79/135 68/77/133 37/78/134 35/80/136
f 70/81/137 69/79/135 35/80/136 33/82/138
f 71/83/139 70/81/137 33/82/138 31/84/140
f 72/116/141 71/83/139 31/84/140 57/117/142
f 59/58/116 72/85/141 57/86/142 55/59/117
f 74/47/80 73/51/82 59/58/116 60/57/115
f 75/43/78 74/47/80 60/57/115 61/61/119
f 76/39/76 75/43/78 61/61/119 62/63/121
f 77/35/74 76/39/76 62/63/121 63/65/123
f 78/32/72 77/35/74 63/65/123 64/67/125
f 79/28/70 78/32/72 64/67/125 65/69/127
f 80/24/68 79/28/70 65/69/127 66/73/129
f 81/20/66 80/24/68 66/73/129 67/75/131
f 82/16/64 81/20/66 67/75/131 68/77/133
f 83/12/62 82/16/64 68/77/133 69/79/135
f 84/5/59 83/12/62 69/79/135 70/81/137
f 85/8/60 84/5/59 70/81/137 71/83/139
f 86/115/84 85/8/60 71/83/139 72/116/141
f 73/51/82 86/55/84 72/85/141 59/58/116
