# This file uses centimeters as units for non-parametric coordinates.

mtllib Rock_v003.mtl
g default
v -10.155637 0.000000 -2.501316
v -0.000000 0.000000 0.000000
v 11.585613 0.000000 -2.501316
v -8.316458 7.989880 -1.471623
v 0.436928 14.997342 -1.737492
v 14.373155 13.912079 -2.501316
v -5.665316 25.646509 -3.290892
v 0.436928 24.556156 -1.428821
v 13.553762 27.252213 -4.135162
v -4.635610 35.291878 -7.468779
v 2.411261 41.567024 -7.468779
v 8.532707 41.655125 -5.161882
v -4.635610 35.106827 -15.390771
v 2.411261 41.567024 -15.390771
v 14.854340 41.452534 -12.192770
v -3.522378 33.061920 -30.069294
v 4.187077 41.306583 -28.638268
v 9.952004 41.989014 -24.120804
v -9.576350 25.646509 -29.138016
v 2.192955 24.230587 -32.436676
v 16.352482 27.252213 -25.157463
v -10.019756 8.810434 -32.103508
v 1.872449 11.958630 -39.361320
v 20.146980 12.349466 -27.301384
v -9.329870 0.000000 -32.966309
v -2.864350 -0.156664 -37.365852
v 11.705669 -0.156664 -27.301384
v -12.260593 0.000000 -14.601192
v -0.000000 0.000000 -14.601192
v 15.395784 0.000000 -14.601192
v 24.208122 13.912079 -14.601192
v 18.425341 27.252213 -14.601192
v -11.495256 8.810435 -20.421747
v -10.402113 25.646509 -19.012281
vt 0.307166 0.376433
vt 0.206936 0.473734
vt 0.148464 0.619001
vt 0.278141 0.350551
vt 0.292927 0.583773
vt 0.297586 0.662073
vt 0.147989 0.704452
vt 0.273748 0.249224
vt 0.297221 0.732812
vt 0.254026 0.880511
vt 0.323135 0.177420
vt 0.279897 0.821465
vt 0.391069 0.970711
vt 0.438607 0.144233
vt 0.388105 0.826200
vt 0.639836 0.882715
vt 0.655297 0.180960
vt 0.546826 0.865023
vt 0.742617 0.752009
vt 0.619954 0.245786
vt 0.551385 0.765190
vt 0.777115 0.590681
vt 0.657707 0.338965
vt 0.562968 0.690107
vt 0.754633 0.445601
vt 0.658727 0.384543
vt 0.583338 0.587811
vt 0.429539 0.463343
vt 0.440363 0.343182
vt 0.434538 0.599217
vt 0.440480 0.694703
vt 0.427765 0.767722
vt 0.437902 0.302161
vt 0.445154 0.225034
vt 0.824105 0.352084
vt 0.762961 0.201807
vt 0.665244 0.067391
vt 0.432847 0.053190
vt 0.294406 0.091705
vt 0.194795 0.240380
vt 0.177638 0.326952
vn -0.133241 0.043680 0.990121
vn -0.133241 0.043680 0.990121
vn -0.133241 0.043680 0.990121
vn -0.133241 0.043680 0.990121
vn 0.128662 0.045189 0.990658
vn 0.128662 0.045189 0.990658
vn 0.128662 0.045189 0.990659
vn 0.128662 0.045189 0.990658
vn -0.133270 0.067863 0.988754
vn -0.133270 0.067863 0.988754
vn -0.133270 0.067863 0.988754
vn -0.133270 0.067863 0.988754
vn 0.123371 0.061732 0.990439
vn 0.123371 0.061732 0.990439
vn 0.123371 0.061732 0.990439
vn 0.123371 0.061732 0.990439
vn -0.272026 0.371004 0.887895
vn -0.272026 0.371003 0.887895
vn -0.272026 0.371004 0.887895
vn -0.272026 0.371004 0.887895
vn -0.011348 0.218408 0.975792
vn -0.011348 0.218408 0.975792
vn -0.011348 0.218408 0.975792
vn -0.011348 0.218408 0.975792
vn -0.670421 0.741930 -0.008665
vn -0.670421 0.741930 -0.008665
vn -0.670421 0.741930 -0.008665
vn -0.670421 0.741930 -0.008665
vn 0.004833 0.999922 -0.011505
vn 0.004833 0.999922 -0.011505
vn 0.004833 0.999922 -0.011505
vn 0.004833 0.999922 -0.011505
vn -0.693493 0.708594 -0.130240
vn -0.693493 0.708594 -0.130240
vn -0.693493 0.708594 -0.130240
vn -0.693493 0.708594 -0.130240
vn -0.037797 0.999163 0.015649
vn -0.037797 0.999163 0.015649
vn -0.037797 0.999163 0.015649
vn -0.037797 0.999163 0.015649
vn -0.150865 0.163705 -0.974905
vn -0.150865 0.163705 -0.974905
vn -0.150865 0.163705 -0.974905
vn -0.150865 0.163705 -0.974905
vn 0.472346 0.196031 -0.859338
vn 0.472346 0.196031 -0.859338
vn 0.472346 0.196031 -0.859338
vn 0.472346 0.196031 -0.859338
vn -0.406663 0.303458 -0.861707
vn -0.406663 0.303458 -0.861707
vn -0.406663 0.303458 -0.861707
vn -0.406663 0.303458 -0.861707
vn 0.456654 0.333601 -0.824729
vn 0.456654 0.333601 -0.824729
vn 0.456654 0.333601 -0.824729
vn 0.456654 0.333601 -0.824729
vn -0.542000 0.059446 -0.838273
vn -0.542000 0.059446 -0.838273
vn -0.542000 0.059446 -0.838273
vn -0.542000 0.059446 -0.838273
vn 0.527180 -0.345097 -0.776524
vn 0.527180 -0.345097 -0.776524
vn 0.527180 -0.345097 -0.776524
vn 0.527180 -0.345097 -0.776524
vn -0.007474 -0.999965 0.003797
vn -0.007474 -0.999965 0.003797
vn -0.007474 -0.999965 0.003797
vn -0.007474 -0.999965 0.003797
vn -0.003164 -0.999951 0.009419
vn -0.003164 -0.999951 0.009419
vn -0.003164 -0.999951 0.009419
vn -0.003164 -0.999951 0.009419
vn 0.000000 -1.000000 0.000000
vn 0.000000 -1.000000 0.000000
vn 0.000000 -1.000000 0.000000
vn 0.000000 -1.000000 0.000000
vn 0.000000 -1.000000 0.000000
vn 0.000000 -1.000000 0.000000
vn 0.000000 -1.000000 0.000000
vn 0.000000 -1.000000 0.000000
vn 0.817961 -0.534208 -0.213452
vn 0.817961 -0.534208 -0.213452
vn 0.817961 -0.534208 -0.213453
vn 0.817961 -0.534208 -0.213452
vn 0.818755 -0.341338 0.461659
vn 0.818755 -0.341339 0.461659
vn 0.818755 -0.341338 0.461659
vn 0.818755 -0.341338 0.461659
vn 0.907874 0.327713 -0.261475
vn 0.907874 0.327713 -0.261475
vn 0.907874 0.327713 -0.261475
vn 0.907874 0.327713 -0.261475
vn 0.814514 0.234063 0.530831
vn 0.814514 0.234063 0.530831
vn 0.814514 0.234063 0.530831
vn 0.814514 0.234063 0.530831
vn 0.899687 0.342281 -0.270938
vn 0.899687 0.342281 -0.270938
vn 0.899687 0.342281 -0.270938
vn 0.899687 0.342281 -0.270938
vn 0.822560 0.221792 0.523644
vn 0.822560 0.221792 0.523644
vn 0.822560 0.221792 0.523644
vn 0.822560 0.221792 0.523644
vn -0.988756 -0.036562 -0.144996
vn -0.988756 -0.036562 -0.144996
vn -0.988757 -0.036562 -0.144996
vn -0.988756 -0.036562 -0.144996
vn -0.965430 0.198010 0.169519
vn -0.965430 0.198010 0.169519
vn -0.965430 0.198010 0.169519
vn -0.965430 0.198010 0.169519
vn -0.992751 0.058913 -0.104761
vn -0.992751 0.058913 -0.104761
vn -0.992751 0.058913 -0.104761
vn -0.992751 0.058913 -0.104761
vn -0.968676 0.107810 0.223703
vn -0.968676 0.107810 0.223703
vn -0.968677 0.107810 0.223703
vn -0.968677 0.107810 0.223703
vn -0.805607 0.581969 -0.110954
vn -0.805607 0.581969 -0.110954
vn -0.805607 0.581969 -0.110954
vn -0.805606 0.581969 -0.110954
vn -0.924630 0.334225 0.182628
vn -0.924630 0.334225 0.182628
vn -0.924630 0.334225 0.182628
vn -0.924630 0.334225 0.182628
s off
g Rock_v003 Rocks
usemtl initialShadingGroup
f 1/1/1 2/2/2 5/41/3 4/4/4
f 2/2/5 3/5/6 6/6/7 5/3/8
f 4/4/9 5/41/10 8/40/11 7/8/12
f 5/3/13 6/6/14 9/9/15 8/7/16
f 7/8/17 8/40/18 11/39/19 10/11/20
f 8/7/21 9/9/22 12/12/23 11/10/24
f 10/11/25 11/39/26 14/38/27 13/14/28
f 11/10/29 12/12/30 15/15/31 14/13/32
f 13/14/33 14/38/34 17/37/35 16/17/36
f 14/13/37 15/15/38 18/18/39 17/16/40
f 16/17/41 17/37/42 20/36/43 19/20/44
f 17/16/45 18/18/46 21/21/47 20/19/48
f 19/20/49 20/36/50 23/35/51 22/23/52
f 20/19/53 21/21/54 24/24/55 23/22/56
f 22/23/57 23/35/58 26/25/59 25/26/60
f 23/22/61 24/24/62 27/27/63 26/25/64
f 25/26/65 26/25/66 29/28/67 28/29/68
f 26/25/69 27/27/70 30/30/71 29/28/72
f 28/29/73 29/28/74 2/2/75 1/1/76
f 29/28/77 30/30/78 3/5/79 2/2/80
f 30/30/81 27/27/82 24/24/83 31/31/84
f 3/5/85 30/30/86 31/31/87 6/6/88
f 31/31/89 24/24/90 21/21/91 32/32/92
f 6/6/93 31/31/94 32/32/95 9/9/96
f 32/32/97 21/21/98 18/18/99 15/15/100
f 9/9/101 32/32/102 15/15/103 12/12/104
f 25/26/105 28/29/106 33/33/107 22/23/108
f 28/29/109 1/1/110 4/4/111 33/33/112
f 22/23/113 33/33/114 34/34/115 19/20/116
f 33/33/117 4/4/118 7/8/119 34/34/120
f 19/20/121 34/34/122 13/14/123 16/17/124
f 34/34/125 7/8/126 10/11/127 13/14/128
