# This file uses centimeters as units for non-parametric coordinates.

mtllib Rock_v001.mtl
g default
v -15.438673 0.000000 -12.044703
v -6.217010 -0.565678 -0.489967
v 8.179098 -0.091944 -4.414871
v -16.117371 7.998438 -18.109451
v -8.151927 7.938651 -11.211729
v 5.296613 9.432373 -13.166834
v -12.704147 17.341518 -17.459824
v -6.109480 17.946526 -12.784245
v 7.029363 16.776833 -18.656015
v -15.099474 19.684654 -27.054604
v -10.896942 21.473698 -24.004229
v 8.458569 15.442955 -31.989431
v -13.771770 13.213459 -54.511238
v -6.729449 16.471424 -56.337379
v 6.143877 14.325247 -52.760532
v -17.979084 10.810586 -58.347961
v -6.581780 8.824848 -61.790897
v 9.594236 9.432373 -56.294403
v -18.379744 0.000000 -63.870247
v -5.713834 0.000000 -69.721535
v 2.474352 0.000000 -64.463097
v -21.165911 0.000000 -33.901054
v -5.713834 0.000000 -33.901054
v 11.378191 0.000000 -26.354515
v 10.747019 9.432373 -26.634991
v -20.169758 8.053697 -33.901054
v -8.043989 20.971754 -41.807480
v -14.311649 15.844820 -42.714321
v -20.360628 8.053697 -48.917603
v -23.499237 0.000000 -53.570343
v -5.713834 0.000000 -53.773598
v 9.703533 0.000000 -50.653374
v 9.594236 9.432373 -40.637154
v 6.143877 16.654230 -46.440712
v -1.577934 20.336384 -28.993576
v 1.743545 19.383881 -39.510162
v -1.577934 17.796219 -54.159920
v 1.453209 9.432373 -59.894760
v -0.729157 0.000000 -66.520386
v -0.030534 0.000000 -51.874115
v 0.988938 0.000000 -33.901054
v 0.000001 0.000000 -0.000004
v 1.820157 11.009018 -7.982796
v 1.946848 18.864746 -14.916758
v 12.048840 5.063533 -27.760159
v 7.909606 4.690355 -11.955158
v 0.014276 6.176936 -3.425446
v -9.300066 4.184834 -6.415693
v -17.567127 5.861550 -14.977615
v -21.829437 4.645014 -28.063858
v -23.518841 4.679466 -47.664097
v -16.034243 4.659278 -63.439720
v -8.313838 6.370547 -66.144005
v 0.366090 5.063926 -65.331825
v 7.191899 5.020499 -60.317474
v 9.227083 4.982326 -45.411869
vt 0.335539 0.452782
vt 0.368395 0.566069
vt 0.293030 0.649516
vt 0.217414 0.521285
vt 0.416512 0.617750
vt 0.374805 0.735687
vt 0.195563 0.723504
vt 0.117567 0.604373
vt 0.276251 0.821144
vt 0.899087 0.090016
vt 0.786938 0.056288
vt 0.240992 0.920881
vt 0.784319 0.209234
vt 0.666484 0.178056
vt 0.862630 0.394018
vt 0.714328 0.343777
vt 0.595814 0.247247
vt 0.785353 0.493110
vt 0.614692 0.403954
vt 0.543186 0.337824
vt 0.657492 0.481939
vt 0.507459 0.502569
vt 0.370323 0.282714
vt 0.626191 0.648201
vt 0.883958 0.612334
vt 0.178583 0.346070
vt 0.525982 0.140167
vt 0.028959 0.573771
vt 0.466029 0.822660
vt 0.974196 0.383137
vt 0.028276 0.705915
vt 0.830987 0.160757
vt 0.715464 0.128542
vt 0.567419 0.203705
vt 0.472896 0.315415
vt 0.571088 0.444054
vt 0.644764 0.549546
vt 0.825448 0.541589
vt 0.907996 0.389593
vt 0.944811 0.268457
vt 0.157770 0.836779
vt 0.877867 0.300064
vt 0.831992 0.321724
vt 0.757565 0.434686
vt 0.640747 0.451429
vt 0.615940 0.508273
vt 0.579739 0.591224
vt 0.397687 0.597531
vt 0.342812 0.701974
vt 0.244683 0.782944
vt 0.559527 0.720816
vt 0.733481 0.633272
vt 0.399152 0.666839
vt 0.374846 0.641003
vt 0.337026 0.600802
vt 0.286372 0.481295
vt 0.435113 0.223381
vt 0.290515 0.309085
vt 0.512239 0.268918
vt 0.565091 0.300123
vt 0.656163 0.378907
vt 0.689371 0.444460
vt 0.710712 0.486589
vt 0.719971 0.546234
vn -0.730551 0.188994 0.656183
vn -0.730551 0.188994 0.656183
vn -0.676936 0.354538 0.645028
vn -0.532415 0.618932 0.577459
vn -0.267892 0.581884 0.767883
vn 0.161947 0.650690 0.741873
vn 0.117460 0.700985 0.703437
vn -0.336593 0.684837 0.646300
vn -0.613258 0.209223 0.761670
vn -0.613258 0.209223 0.761670
vn -0.613258 0.209223 0.761670
vn -0.613258 0.209223 0.761670
vn -0.151159 0.439896 0.885236
vn 0.173658 0.465423 0.867885
vn 0.311151 0.461036 0.831042
vn -0.151159 0.439896 0.885236
vn -0.452762 0.805047 0.383284
vn -0.452762 0.805047 0.383284
vn -0.452762 0.805047 0.383284
vn -0.452762 0.805047 0.383284
vn 0.081053 0.982531 0.167521
vn 0.222380 0.970986 0.087938
vn 0.256679 0.964119 0.067747
vn 0.081053 0.982531 0.167521
vn -0.499536 0.850493 -0.164700
vn -0.499536 0.850493 -0.164700
vn -0.513268 0.832810 -0.207324
vn -0.516350 0.828334 -0.217361
vn 0.138313 0.990172 -0.020697
vn 0.223892 0.974573 -0.008949
vn 0.299404 0.952516 -0.055412
vn 0.110926 0.987620 -0.110920
vn -0.238457 0.709432 -0.663207
vn -0.238457 0.709432 -0.663207
vn -0.238457 0.709432 -0.663207
vn -0.238457 0.709432 -0.663207
vn 0.159356 0.586555 -0.794078
vn 0.244462 0.616175 -0.748710
vn 0.263847 0.622149 -0.737099
vn 0.159356 0.586555 -0.794078
vn -0.316133 0.508111 -0.801176
vn -0.312524 0.516360 -0.797309
vn -0.390111 0.306508 -0.868255
vn -0.390111 0.306508 -0.868255
vn 0.211153 0.635696 -0.742499
vn 0.343000 0.525638 -0.778496
vn 0.391344 0.309015 -0.866810
vn 0.293262 0.400443 -0.868126
vn 0.000000 -1.000000 0.000000
vn 0.000000 -1.000000 0.000000
vn 0.000000 -1.000000 0.000000
vn 0.000000 -1.000000 0.000000
vn 0.000000 -1.000000 0.000000
vn 0.000000 -1.000000 0.000000
vn 0.000000 -1.000000 0.000000
vn 0.000000 -1.000000 0.000000
vn -0.018969 -0.999784 -0.008440
vn -0.018969 -0.999785 -0.008440
vn -0.018969 -0.999785 -0.008440
vn -0.018969 -0.999784 -0.008440
vn 0.044022 -0.999003 -0.007420
vn 0.023031 -0.999722 -0.005078
vn 0.021982 -0.999746 -0.004961
vn 0.044022 -0.999003 -0.007420
vn 0.994071 0.021483 -0.106590
vn 0.967657 -0.070698 -0.242163
vn 0.991080 -0.060052 -0.118974
vn 0.989733 0.086953 -0.113441
vn 0.972501 0.133666 0.190721
vn 0.972501 0.133666 0.190721
vn 0.938980 0.247365 0.239012
vn 0.950730 0.213449 0.224839
vn 0.941001 0.323003 -0.100925
vn 0.926416 0.365912 -0.088662
vn 0.899384 0.431679 -0.069007
vn 0.941001 0.323003 -0.100925
vn 0.945907 0.227316 0.231489
vn 0.945907 0.227316 0.231489
vn 0.945907 0.227316 0.231489
vn 0.945907 0.227316 0.231489
vn -0.909107 0.309994 -0.278261
vn -0.975304 -0.197063 0.099736
vn -0.985586 0.146875 0.083956
vn -0.983499 0.176716 -0.038746
vn -0.909095 -0.316468 0.270914
vn -0.909095 -0.316467 0.270914
vn -0.955540 -0.103194 0.276214
vn -0.960841 0.053474 0.271893
vn -0.761437 0.642559 -0.085628
vn -0.839574 0.536785 -0.083529
vn -0.839574 0.536785 -0.083529
vn -0.814328 0.574234 -0.084414
vn -0.923720 0.280309 0.261092
vn -0.923720 0.280309 0.261092
vn -0.923720 0.280309 0.261092
vn -0.923720 0.280309 0.261092
vn -0.527807 0.809703 -0.256519
vn -0.527807 0.809703 -0.256519
vn -0.658598 0.747540 -0.086220
vn -0.658598 0.747540 -0.086220
vn -0.798746 0.461156 -0.386446
vn -0.843201 0.390625 -0.369357
vn 0.000000 -1.000000 0.000000
vn 0.000000 -1.000000 0.000000
vn 0.000000 -1.000000 0.000000
vn 0.000000 -1.000000 0.000000
vn 0.945397 -0.114459 -0.305163
vn 0.958337 -0.147719 -0.244476
vn 0.871891 0.486973 -0.051606
vn 0.871891 0.486973 -0.051606
vn 0.159843 0.963329 -0.215515
vn 0.079720 0.974695 -0.208842
vn 0.482003 0.875706 0.028512
vn 0.399231 0.904112 -0.152304
vn 0.359867 0.905200 -0.226072
vn 0.354438 0.645985 -0.676075
vn 0.354438 0.645985 -0.676075
vn 0.440124 0.521032 -0.731312
vn 0.573690 0.099368 -0.813023
vn 0.000000 -1.000000 0.000000
vn 0.000000 -1.000000 0.000000
vn 0.000000 -1.000000 0.000000
vn -0.004615 -0.999987 -0.001993
vn -0.004615 -0.999987 -0.001993
vn 0.535132 0.603713 0.590901
vn 0.642109 0.509751 0.572583
vn 0.741959 0.367525 0.560734
vn 0.741959 0.367525 0.560734
vn 0.409244 0.912034 -0.026704
vn 0.409244 0.912034 -0.026704
vn 0.877625 0.379880 0.292345
vn 0.877625 0.379880 0.292345
vn 0.285786 0.678824 0.676405
vn 0.750571 0.386312 0.536103
vn -0.374560 0.738963 0.560033
vn -0.366391 0.800318 0.474603
vn -0.366391 0.800318 0.474603
vn -0.708737 0.683011 0.176598
vn -0.708737 0.683011 0.176598
vn -0.792386 0.608457 0.043645
vn -0.895150 0.403175 -0.190147
vn -0.910792 0.248784 -0.329491
vn -0.202515 0.721593 -0.662036
vn -0.202515 0.721593 -0.662036
vn 0.129159 0.795722 -0.591730
vn 0.304487 0.679034 -0.667983
vn 0.403456 0.591665 -0.697966
vn 0.989976 0.087231 -0.111074
vn 0.968984 -0.238469 -0.064823
vn 0.974922 0.185541 -0.122890
s 1
g Rock_v001 Rocks
usemtl initialShadingGroup
f 1/1/1 2/2/2 48/55/3 49/56/4
s 2
f 2/2/5 42/48/6 47/54/7 48/55/8
s off
f 4/4/9 5/3/10 8/7/11 7/8/12
s 3
f 5/3/13 43/49/14 44/50/15 8/7/16
s off
f 7/8/17 8/7/18 11/31/19 10/28/20
s 4
f 8/7/21 44/50/22 35/41/23 11/31/24
s 5
f 10/11/25 11/10/26 27/32/27 28/33/28
s 6
f 11/10/29 35/40/30 36/42/31 27/32/32
s off
f 13/14/33 14/13/34 17/16/35 16/17/36
s 7
f 14/13/37 37/43/38 38/44/39 17/16/40
s 8
f 52/60/41 53/61/42 20/19/43 19/20/44
s 9
f 53/61/45 54/62/46 39/45/47 20/19/48
s 10
f 30/35/49 31/36/50 23/22/51 22/23/52
s 11
f 31/36/53 40/46/54 41/47/55 23/22/56
s off
f 22/23/57 23/22/58 2/2/59 1/1/60
s 12
f 23/22/61 41/47/62 42/48/63 2/2/64
s 13
f 24/24/65 32/37/66 56/64/67 45/52/68
s 14
f 3/5/69 24/24/70 45/51/71 46/53/72
s 15
f 25/25/73 33/38/74 34/39/75 12/30/76
s off
f 6/6/77 25/29/78 12/12/79 9/9/80
s 16
f 30/35/81 22/23/82 50/57/83 51/59/84
s 17
f 22/23/85 1/1/86 49/56/87 50/58/88
s 18
f 29/34/89 26/27/90 10/11/91 28/33/92
s off
f 26/26/93 4/4/94 7/8/95 10/28/96
s 5
f 28/33/28 27/32/27 14/13/97 13/14/98
s 18
f 16/17/99 29/34/89 28/33/92 13/14/100
s 16
f 19/20/101 30/35/81 51/59/84 52/60/102
s 10
f 19/20/103 20/19/104 31/36/50 30/35/49
s 11
f 20/19/105 39/45/106 40/46/54 31/36/53
s 13
f 56/64/67 32/37/66 21/21/107 55/63/108
s 15
f 34/39/75 33/38/74 18/18/109 15/15/110
s 6
f 27/32/32 36/42/31 37/43/111 14/13/112
f 35/40/30 12/30/113 34/39/114 36/42/31
f 37/43/111 36/42/31 34/39/114 15/15/115
s 7
f 38/44/39 37/43/38 15/15/116 18/18/117
s 9
f 39/45/47 54/62/46 55/63/118 21/21/119
s 11
f 40/46/54 39/45/106 21/21/120 32/37/121
f 41/47/55 40/46/54 32/37/121 24/24/122
s 12
f 42/48/63 41/47/62 24/24/123 3/5/124
s 2
f 47/54/7 42/48/6 3/5/125 46/53/126
s 3
f 44/50/15 43/49/14 6/6/127 9/9/128
s 4
f 35/41/23 44/50/22 9/9/129 12/12/130
s 14
f 46/53/72 45/51/71 25/29/131 6/6/132
s 2
f 43/49/133 47/54/7 46/53/126 6/6/134
f 48/55/8 47/54/7 43/49/133 5/3/135
s 1
f 49/56/4 48/55/3 5/3/136 4/4/137
s 17
f 50/58/88 49/56/87 4/4/138 26/26/139
s 16
f 51/59/84 50/57/83 26/27/140 29/34/141
f 52/60/102 51/59/84 29/34/141 16/17/142
s 8
f 16/17/143 17/16/144 53/61/42 52/60/41
s 9
f 17/16/145 38/44/146 54/62/46 53/61/45
f 55/63/118 54/62/46 38/44/146 18/18/147
s 13
f 33/38/148 56/64/67 55/63/108 18/18/149
f 45/52/68 56/64/67 33/38/148 25/25/150
